<svg width="806" height="806" viewBox="0 0 806 806" fill="none" xmlns="http://www.w3.org/2000/svg">
<path d="M334.7 316.144V294.328H325.893V311.941H317.088V320.746H330.098C332.639 320.746 334.7 318.685 334.7 316.144Z" fill="#F0F2F5"/>
<path d="M317.088 276.719H325.893V285.523H334.7V267.914H325.893V259.11H317.088V276.719Z" fill="#F0F2F5"/>
<path d="M308.283 215.083V223.888H317.088V250.305H325.893V259.11H334.7V250.305V241.501H325.893V232.696H334.7V215.083H317.088H308.283Z" fill="#F0F2F5"/>
<path d="M308.283 303.137H299.478V294.328H308.283V303.137ZM273.063 276.719V259.11H281.868V267.914H290.673V259.11H299.478V276.719H273.063ZM290.673 294.328H273.063V285.524H290.673V294.328ZM308.283 250.305H290.673V241.501H281.868V250.305H273.063V241.501H264.258V267.914H255.453V259.11H229.038V267.914H220.233V276.719H229.038V294.328H237.843V267.914H246.648V276.719H264.258V285.524H246.648V294.328H255.453V311.941H264.258V320.746H281.868V311.941H273.063V303.137H290.673V311.941H299.478V320.746H308.283V311.941H317.088V285.524H308.283V259.11H317.088V250.305H308.283Z" fill="#F0F2F5"/>
<path d="M308.283 241.5V232.696H299.478V241.5H308.283Z" fill="#F0F2F5"/>
<path d="M325.893 188.669H281.868V144.642H325.893V188.669ZM273.063 135.838V197.474H334.7V140.44C334.7 137.899 332.639 135.838 330.098 135.838H273.063Z" fill="#F0F2F5"/>
<path d="M317.088 153.447H290.673V179.861H317.088V153.447Z" fill="#E1E6EB"/>
<path d="M264.258 188.669H255.453V197.474H264.258V188.669Z" fill="#F0F2F5"/>
<path d="M237.843 144.642H246.648V153.447H237.843V144.642ZM237.843 162.251H246.648V171.056H255.453V179.861H264.258V162.251H255.453V153.447H264.258V135.838H220.233V153.447H229.038V171.056H237.843V162.251Z" fill="#F0F2F5"/>
<path d="M220.233 320.746H246.648V311.941H237.843V303.137H229.038V294.328H220.233V320.746Z" fill="#F0F2F5"/>
<path d="M158.596 267.914H202.621V311.941H158.596V267.914ZM154.392 320.746H211.428V259.11H149.791V316.144C149.791 318.685 151.851 320.746 154.392 320.746Z" fill="#F0F2F5"/>
<path d="M211.428 206.278H193.816V215.083H211.428V206.278Z" fill="#F0F2F5"/>
<path d="M237.843 250.305V241.501H229.038V223.888H246.648V241.501H255.453V232.696H273.063V223.888H290.673V232.696H299.478V223.888V215.083H290.673V206.278H264.258V223.888H255.453V215.083V197.474H246.648V179.861H237.843V197.474H229.038V171.056H220.233V241.501H193.816V250.305H220.233V259.11H229.038V250.305H237.843Z" fill="#F0F2F5"/>
<path d="M167.401 303.136H193.816V276.719H167.401V303.136Z" fill="#E1E6EB"/>
<path d="M149.791 206.279V223.888H167.401V215.083H176.206V206.279H149.791Z" fill="#F0F2F5"/>
<path d="M185.011 232.696H211.428V223.888H193.816V215.083H176.206V241.501H167.401V241.635H158.381V232.83H149.791V250.305H185.011V232.696Z" fill="#F0F2F5"/>
<path d="M202.621 188.669H158.596V144.642H202.621V188.669ZM211.428 135.838H154.392C151.851 135.838 149.791 137.899 149.791 140.44V197.474H211.428V135.838Z" fill="#F0F2F5"/>
<path d="M193.816 153.447H167.401V179.861H193.816V153.447Z" fill="#E1E6EB"/>
<path d="M129.732 364.584C138.817 364.78 147.288 368.515 153.567 375.078C159.851 381.649 163.202 390.269 162.999 399.358C162.796 408.446 159.069 416.913 152.501 423.196C138.946 436.165 117.357 435.685 104.39 422.125C98.1056 415.558 94.7549 406.938 94.953 397.845C95.156 388.761 98.8832 380.294 105.456 374.015C112.024 367.732 120.645 364.381 129.732 364.584ZM99.1511 367.425C90.8217 375.389 86.0962 386.128 85.8383 397.646C85.5857 409.172 89.833 420.103 97.8009 428.431C113.182 444.509 138.113 446.079 155.342 432.757L173.85 452.112C173.71 453.985 173.545 455.083 174.941 456.541L177.309 459.013L199.169 481.869C201.778 484.598 206.107 484.694 208.837 482.084C210.199 480.775 210.909 479.04 210.948 477.294C210.986 475.544 210.358 473.778 209.052 472.416L185.911 448.224L184.823 447.088C183.426 445.626 182.47 445.887 180.599 445.952L161.932 426.455C168.308 418.94 171.892 409.548 172.114 399.561C172.372 388.039 168.124 377.104 160.156 368.776C152.189 360.447 141.456 355.722 129.931 355.465C118.412 355.212 107.48 359.457 99.1511 367.425Z" fill="#F0F2F5"/>
<mask id="mask0_619_147" style="mask-type:luminance" maskUnits="userSpaceOnUse" x="94" y="364" width="70" height="69">
<path d="M128.988 432.619C120.019 432.619 111.063 429.103 104.39 422.125C99.6935 417.216 96.6353 411.164 95.4724 404.62C95.0801 402.409 94.9044 400.145 94.9554 397.849C95.1024 391.217 97.1289 384.915 100.767 379.549C102.114 377.565 103.681 375.711 105.456 374.015C111.836 367.912 120.152 364.573 128.951 364.573C129.211 364.573 129.471 364.577 129.732 364.585C135.062 364.7 140.179 366.032 144.768 368.438C148.001 370.134 150.971 372.364 153.568 375.078C153.629 375.143 153.69 375.208 153.75 375.27C158.579 380.398 161.64 386.746 162.644 393.581C162.753 394.326 162.839 395.074 162.899 395.831C162.992 396.997 163.026 398.172 162.999 399.358C162.834 406.742 160.344 413.716 155.892 419.442C154.865 420.763 153.734 422.018 152.503 423.196C146.59 428.85 139.149 431.951 131.563 432.523C130.706 432.584 129.846 432.619 128.988 432.619Z" fill="white"/>
</mask>
<g mask="url(#mask0_619_147)">
<path d="M94.9043 432.619H163.026V364.575H94.9043V432.619Z" fill="white"/>
</g>
<path d="M128.986 432.619C120.017 432.619 111.063 429.107 104.389 422.129C99.6918 417.22 96.6336 411.164 95.4722 404.62C96.6351 411.164 99.6933 417.216 104.39 422.125C111.063 429.103 120.018 432.619 128.988 432.619C129.846 432.619 130.706 432.584 131.563 432.523C130.705 432.584 129.845 432.619 128.986 432.619ZM155.892 419.442C160.343 413.716 162.834 406.742 162.999 399.358C163.025 398.172 162.992 396.997 162.899 395.831C162.992 396.997 163.026 398.172 162.999 399.358C162.836 406.742 160.344 413.716 155.892 419.442ZM162.644 393.581C161.639 386.746 158.579 380.398 153.75 375.27C158.58 380.394 161.639 386.746 162.644 393.581ZM100.767 379.549C102.113 377.565 103.68 375.711 105.454 374.015C111.836 367.908 120.156 364.573 128.958 364.573C129.216 364.573 129.473 364.577 129.733 364.581C135.063 364.7 140.179 366.032 144.768 368.438C140.179 366.032 135.061 364.7 129.731 364.585C129.471 364.577 129.211 364.573 128.951 364.573C120.152 364.573 111.836 367.912 105.456 374.015C103.681 375.711 102.114 377.565 100.767 379.549Z" fill="#F4F5F8"/>
<path d="M177.563 446.992C179.588 445.058 182.829 445.035 184.781 447.042L184.823 447.088L185.91 448.224L209.051 472.416C210.358 473.778 210.986 475.544 210.947 477.294C210.909 479.04 210.199 480.775 208.837 482.084C206.106 484.694 201.778 484.598 199.169 481.869L177.309 459.013L174.941 456.541L174.897 456.492C172.979 454.454 173.146 451.218 175.17 449.28L177.563 446.992Z" fill="#E1E6EB"/>
<path d="M642.536 249.733H558.481C551.185 249.733 545.271 243.819 545.271 236.523V152.468C545.271 145.172 551.185 139.258 558.481 139.258H642.536C649.832 139.258 655.746 145.172 655.746 152.468V236.523C655.746 243.819 649.832 249.733 642.536 249.733Z" fill="#F0F2F5"/>
<path d="M582.669 167.241C582.143 167.241 581.64 166.934 581.418 166.42C581.118 165.729 581.433 164.927 582.124 164.624C582.707 164.37 596.59 158.49 616.114 162.605C616.855 162.758 617.327 163.484 617.169 164.221C617.016 164.957 616.287 165.43 615.554 165.276C596.927 161.354 583.344 167.072 583.21 167.13C583.033 167.207 582.849 167.241 582.669 167.241Z" fill="#E1E6EB"/>
<path d="M593.343 159.062C592.694 159.062 592.118 158.598 591.999 157.938C591.865 157.197 592.356 156.487 593.101 156.353C593.346 156.306 599.238 155.251 605.248 155.642C606.001 155.692 606.572 156.341 606.523 157.093C606.473 157.846 605.828 158.421 605.072 158.368C599.399 157.999 593.646 159.028 593.588 159.039C593.504 159.055 593.423 159.062 593.343 159.062Z" fill="#E1E6EB"/>
<path d="M623.506 172.983C623.341 172.983 623.172 172.952 623.007 172.887C618.97 171.31 614.763 170.223 610.503 169.663C609.754 169.563 609.229 168.876 609.325 168.132C609.424 167.383 610.111 166.857 610.86 166.953C615.339 167.544 619.76 168.688 624.001 170.346C624.708 170.619 625.053 171.413 624.777 172.116C624.566 172.653 624.051 172.983 623.506 172.983Z" fill="#E1E6EB"/>
<path d="M575.35 176.238C574.889 176.238 574.436 176 574.179 175.574C573.791 174.929 574.003 174.088 574.647 173.701C575.166 173.39 587.532 166.07 604.727 166.481C605.479 166.5 606.077 167.126 606.058 167.878C606.043 168.634 605.421 169.256 604.661 169.214C588.257 168.834 576.175 175.969 576.052 176.042C575.833 176.172 575.592 176.238 575.35 176.238Z" fill="#E1E6EB"/>
<path d="M571.834 185.081C571.442 185.081 571.055 184.916 570.786 184.589C570.303 184.014 570.379 183.15 570.955 182.67C571.212 182.451 577.372 177.362 587.589 174.311C597.016 171.49 611.792 169.981 628.661 178.79C629.329 179.139 629.586 179.964 629.237 180.632C628.887 181.304 628.066 181.561 627.394 181.212C614.544 174.503 601.453 173.048 588.484 176.894C578.769 179.772 572.767 184.716 572.709 184.762C572.452 184.977 572.141 185.081 571.834 185.081Z" fill="#E1E6EB"/>
<path d="M630.557 190.124C630.261 190.124 629.958 190.028 629.709 189.824C619.802 181.922 607.513 178.821 595.1 181.1C594.36 181.239 593.646 180.744 593.512 180.003C593.377 179.262 593.865 178.548 594.609 178.414C607.808 175.988 620.881 179.289 631.413 187.69C632 188.163 632.096 189.022 631.628 189.609C631.355 189.947 630.96 190.124 630.557 190.124Z" fill="#E1E6EB"/>
<path d="M569.873 195.39C569.6 195.39 569.324 195.305 569.086 195.136C568.472 194.703 568.322 193.851 568.76 193.233C573.097 187.099 581.214 181.914 590.472 179.362C591.197 179.158 591.949 179.588 592.149 180.314C592.352 181.039 591.922 181.791 591.197 181.995C582.657 184.347 574.916 189.26 570.99 194.81C570.725 195.186 570.302 195.39 569.873 195.39Z" fill="#E1E6EB"/>
<path d="M631.144 198.23C630.791 198.23 630.438 198.092 630.173 197.823C626.216 193.824 621.948 190.769 617.488 188.746C616.801 188.431 616.498 187.621 616.809 186.934C617.124 186.251 617.93 185.944 618.62 186.259C623.38 188.42 627.92 191.667 632.115 195.9C632.645 196.438 632.641 197.301 632.104 197.835C631.839 198.096 631.49 198.23 631.144 198.23Z" fill="#E1E6EB"/>
<path d="M571.162 206.432C571.047 206.432 570.932 206.417 570.817 206.39C570.088 206.198 569.65 205.449 569.842 204.72C572.375 195.056 582.911 184.501 598.14 183.043C603.974 182.482 609.536 183.046 614.671 184.72C615.389 184.954 615.78 185.725 615.546 186.443C615.312 187.161 614.541 187.552 613.823 187.318C608.983 185.737 603.936 185.23 598.405 185.76C584.415 187.103 574.778 196.664 572.483 205.415C572.321 206.025 571.769 206.432 571.162 206.432Z" fill="#E1E6EB"/>
<path d="M623.955 220.142C623.218 220.142 622.612 219.554 622.593 218.814C622.347 210.124 619.764 203.906 614.913 200.341C609.466 196.338 602.04 196.464 597.334 197.789C593.634 198.832 590.733 200.233 588.706 201.961C588.13 202.448 587.267 202.379 586.779 201.807C586.292 201.231 586.361 200.372 586.933 199.88C589.297 197.869 592.456 196.326 596.593 195.159C601.894 193.666 610.292 193.555 616.529 198.142C622.094 202.233 625.053 209.161 625.322 218.737C625.345 219.489 624.75 220.119 623.994 220.142H623.955Z" fill="#E1E6EB"/>
<path d="M584.899 228.29C584.826 228.29 584.753 228.282 584.684 228.271C583.936 228.152 583.429 227.453 583.548 226.708C583.87 224.697 583.398 222.049 582.899 219.243C582.013 214.246 581.007 208.585 583.79 203.649C584.158 202.993 584.991 202.759 585.647 203.131C586.308 203.5 586.538 204.332 586.169 204.989C583.867 209.072 584.742 214.001 585.59 218.764C586.131 221.803 586.638 224.674 586.246 227.138C586.139 227.81 585.559 228.29 584.899 228.29Z" fill="#E1E6EB"/>
<path d="M618.025 227.334H617.991C617.235 227.315 616.64 226.686 616.663 225.933C616.832 219.547 616.172 214.35 614.69 210.485C614.421 209.783 614.775 208.992 615.477 208.723C616.183 208.455 616.974 208.804 617.242 209.51C618.851 213.709 619.572 219.259 619.392 226.006C619.373 226.747 618.766 227.334 618.025 227.334Z" fill="#E1E6EB"/>
<path d="M591.558 231.932C591.516 231.932 591.473 231.932 591.431 231.928C590.683 231.859 590.13 231.195 590.199 230.443C590.579 226.313 589.996 222.268 589.482 218.695C588.33 210.665 587.24 203.081 598.731 200.149C602.562 199.174 609.704 198.46 614.567 204.659C615.032 205.25 614.928 206.109 614.333 206.574C613.742 207.042 612.882 206.938 612.418 206.344C608.71 201.615 603.295 201.803 599.407 202.797C590.291 205.119 591.005 210.086 592.187 218.307C592.721 222.026 593.327 226.244 592.917 230.692C592.851 231.402 592.256 231.932 591.558 231.932Z" fill="#E1E6EB"/>
<path d="M611.328 230.9C611.29 230.9 611.251 230.9 611.217 230.896C610.464 230.834 609.904 230.178 609.965 229.426C611.067 215.789 608.561 210.738 606.262 208.904C604.392 207.414 602.251 207.775 601.138 208.124C597.238 209.353 597.576 212.492 598.647 218.913C598.839 220.042 599.031 221.208 599.2 222.425C599.299 223.17 598.777 223.861 598.033 223.96C597.284 224.06 596.593 223.542 596.494 222.794C596.332 221.619 596.141 220.472 595.956 219.362C594.939 213.267 593.98 207.514 600.32 205.518C601.948 205.008 605.11 204.49 607.966 206.77C612.061 210.04 613.65 217.735 612.687 229.645C612.629 230.358 612.03 230.9 611.328 230.9Z" fill="#E1E6EB"/>
<path d="M597.968 233.156C597.898 233.156 597.826 233.149 597.753 233.137C597.008 233.018 596.501 232.32 596.62 231.575C596.874 229.979 596.947 228.278 596.847 226.386C596.808 225.63 597.388 224.989 598.14 224.951C598.904 224.901 599.537 225.488 599.576 226.24C599.683 228.328 599.599 230.213 599.315 232.001C599.207 232.677 598.628 233.156 597.968 233.156Z" fill="#E1E6EB"/>
<path d="M629.049 211.364C628.392 211.364 627.813 210.888 627.701 210.22C624.842 192.86 608.695 191.126 603.817 191.01C603.061 190.991 602.466 190.366 602.485 189.609C602.5 188.857 603.126 188.235 603.882 188.278C609.294 188.408 627.195 190.343 630.396 209.775C630.518 210.519 630.016 211.222 629.271 211.345C629.198 211.36 629.121 211.364 629.049 211.364Z" fill="#E1E6EB"/>
<path d="M577.38 221.22C576.758 221.22 576.198 220.798 576.052 220.169C575.937 219.681 573.323 208.159 579.76 198.94C583.832 193.102 590.56 189.579 599.764 188.458C600.52 188.37 601.195 188.9 601.288 189.652C601.376 190.4 600.842 191.08 600.094 191.172C591.704 192.189 585.62 195.325 582.009 200.483C576.271 208.689 578.685 219.435 578.708 219.543C578.881 220.276 578.424 221.013 577.691 221.182C577.587 221.209 577.48 221.22 577.38 221.22Z" fill="#E1E6EB"/>
<path d="M604.734 233.437L604.665 233.433C603.909 233.395 603.329 232.754 603.368 232.001C603.825 222.905 601.522 212.02 601.495 211.913C601.337 211.176 601.81 210.447 602.546 210.289C603.28 210.132 604.009 210.6 604.166 211.341C604.266 211.798 606.569 222.686 606.097 232.139C606.058 232.869 605.456 233.437 604.734 233.437Z" fill="#E1E6EB"/>
<path d="M493.395 135.838H504.879L493.395 122.124V93.4039C493.395 90.107 490.72 87.4319 487.423 87.4319H375.608C372.309 87.4319 369.635 90.107 369.635 93.4039V129.866C369.635 133.163 372.309 135.838 375.608 135.838H493.395Z" fill="#F0F2F5"/>
<path d="M404.792 114.797L407.383 111.332V114.797H404.792ZM413.16 98.3474H413.121L396.391 119.108V119.15H407.383V124.884H413.16V119.15H416.284V114.797H413.16V98.3474Z" fill="#E1E6EB"/>
<path d="M434.891 115.511C434.588 116.724 434.066 117.68 433.329 118.378C432.592 119.077 431.563 119.426 430.243 119.426C428.953 119.426 427.936 119.077 427.199 118.378C426.458 117.68 425.944 116.736 425.656 115.55C425.365 114.364 425.223 113.047 425.223 111.596C425.223 110.146 425.365 108.841 425.656 107.682C425.944 106.519 426.458 105.598 427.199 104.911C427.936 104.227 428.953 103.882 430.243 103.882C431.563 103.882 432.592 104.22 433.329 104.891C434.066 105.563 434.588 106.469 434.891 107.601C435.194 108.733 435.344 110.027 435.344 111.477C435.344 112.955 435.194 114.298 434.891 115.511ZM438.053 101.571C437.04 100.478 435.866 99.6638 434.534 99.138C433.202 98.6122 431.786 98.3474 430.281 98.3474C428.7 98.3474 427.238 98.5662 425.894 98.9999C424.547 99.4336 423.38 100.167 422.394 101.195C421.404 102.224 420.632 103.586 420.08 105.287C419.527 106.987 419.25 109.106 419.25 111.635C419.25 113.903 419.538 115.872 420.118 117.546C420.697 119.223 421.496 120.605 422.513 121.698C423.526 122.796 424.701 123.606 426.032 124.132C427.364 124.661 428.78 124.922 430.281 124.922C431.786 124.922 433.194 124.673 434.515 124.17C435.831 123.671 437.005 122.884 438.034 121.817C439.063 120.75 439.865 119.372 440.448 117.684C441.028 115.999 441.316 113.98 441.316 111.635C441.316 109.367 441.028 107.398 440.448 105.724C439.865 104.047 439.07 102.665 438.053 101.571Z" fill="#E1E6EB"/>
<path d="M451.498 114.797L454.089 111.332V114.797H451.498ZM459.865 114.797V98.3474H459.827L443.097 119.108V119.15H454.089V124.884H459.865V119.15H462.99V114.797H459.865Z" fill="#E1E6EB"/>
<path d="M187.65 576.827V568.829C187.65 564.046 184.884 559.694 180.552 557.664L171.389 553.365C167.986 551.772 165.812 548.352 165.812 544.591L168.122 542.28C169.691 540.715 170.572 538.584 170.572 536.366V527.419C170.572 525.201 169.691 523.071 168.122 521.505C166.553 519.935 164.426 519.056 162.208 519.056H159.733H161.192H158.717C156.498 519.056 154.371 519.935 152.803 521.505C151.234 523.071 150.353 525.201 150.353 527.419V536.366C150.353 538.584 151.234 540.715 152.803 542.28L155.112 544.591C155.112 548.352 152.939 551.772 149.535 553.365L140.372 557.664C136.041 559.694 133.274 564.046 133.274 568.829V576.827H187.65Z" fill="#F0F2F5"/>
<path d="M711.211 480.909V475.816C711.211 472.773 709.453 470.005 706.697 468.712L700.863 465.979C698.698 464.962 697.317 462.786 697.317 460.395L698.787 458.925C699.785 457.927 700.345 456.572 700.345 455.163V449.468C700.345 448.055 699.785 446.704 698.787 445.706C697.789 444.709 696.434 444.144 695.022 444.144H693.448H694.377H692.803C691.391 444.144 690.036 444.709 689.038 445.706C688.04 446.704 687.48 448.055 687.48 449.468V455.163C687.48 456.572 688.04 457.927 689.038 458.925L690.508 460.395C690.508 462.786 689.126 464.962 686.958 465.979L681.128 468.712C678.372 470.005 676.614 472.773 676.614 475.816V480.909H711.211Z" fill="#F0F2F5"/>
<path d="M666.65 555.71C665.188 555.71 663.722 555.184 662.559 554.117C647.886 540.649 628.818 533.234 608.875 533.234C588.937 533.234 569.869 540.653 555.184 554.117C552.724 556.378 548.894 556.213 546.637 553.749C544.376 551.285 544.541 547.458 547.005 545.201C563.924 529.68 585.897 521.133 608.875 521.133C631.858 521.133 653.827 529.68 670.742 545.201C673.206 547.458 673.371 551.289 671.11 553.749C669.916 555.05 668.285 555.71 666.65 555.71Z" fill="#F0F2F5"/>
<path d="M651.674 577.449C650.089 577.449 648.508 576.831 647.318 575.599C637.158 565.067 623.506 559.268 608.876 559.268C594.245 559.268 580.593 565.067 570.433 575.591C568.115 577.998 564.281 578.067 561.878 575.745C559.472 573.423 559.402 569.592 561.725 567.19C574.183 554.275 590.929 547.166 608.876 547.166C626.822 547.166 643.568 554.278 656.03 567.194C658.349 569.6 658.279 573.43 655.877 575.753C654.702 576.885 653.186 577.449 651.674 577.449Z" fill="#F0F2F5"/>
<path d="M636.356 599.676C634.441 599.676 632.556 598.77 631.382 597.077C626.258 589.704 617.845 585.302 608.875 585.302C599.91 585.302 591.493 589.704 586.361 597.077C584.454 599.818 580.681 600.493 577.937 598.586C575.196 596.674 574.521 592.905 576.428 590.161C583.824 579.541 595.953 573.2 608.875 573.2C621.806 573.2 633.934 579.545 641.319 590.172C643.226 592.917 642.547 596.686 639.803 598.593C638.751 599.326 637.546 599.676 636.356 599.676Z" fill="#F0F2F5"/>
<path d="M623.192 612.71C623.192 620.616 616.782 627.03 608.876 627.03C600.965 627.03 594.556 620.616 594.556 612.71C594.556 604.803 600.965 598.394 608.876 598.394C616.782 598.394 623.192 604.803 623.192 612.71Z" fill="#F0F2F5"/>
<path d="M676.614 541.375C676.614 551.607 668.316 559.901 658.087 559.901C647.855 559.901 639.561 551.607 639.561 541.375C639.561 531.143 647.855 522.848 658.087 522.848C668.316 522.848 676.614 531.143 676.614 541.375Z" fill="#E1E6EB"/>
<path d="M654.303 550.233L646.635 542.542C646.159 542.062 646.159 541.29 646.639 540.815L649.087 538.366C649.563 537.886 650.342 537.886 650.818 538.366L655.163 542.741L665.054 532.908C665.534 532.432 666.305 532.436 666.781 532.912L669.23 535.361C669.709 535.84 669.709 536.616 669.23 537.092L656.03 550.237C655.554 550.713 654.779 550.713 654.303 550.233Z" fill="white"/>
<path d="M671.49 290.486L614.245 317.66C612.994 318.251 612.357 319.667 612.744 320.999C615.991 332.16 632.023 380.835 671.103 407.502C672.07 408.158 673.34 408.158 674.303 407.502C713.383 380.835 729.415 332.16 732.666 320.999C733.053 319.667 732.412 318.251 731.161 317.66L673.916 290.486C673.148 290.121 672.258 290.121 671.49 290.486Z" fill="#E1E6EB"/>
<path d="M671.49 303.179L627.217 324.192C625.962 324.791 625.321 326.215 625.721 327.551C628.58 337.161 641.184 374.168 671.095 394.798C672.062 395.466 673.344 395.466 674.311 394.798C704.221 374.168 716.829 337.161 719.685 327.551C720.084 326.215 719.447 324.791 718.188 324.192L673.916 303.179C673.148 302.814 672.258 302.814 671.49 303.179Z" fill="#F0F2F5"/>
<path d="M669.967 361.771L657.262 349.025C656.476 348.234 656.476 346.952 657.266 346.162L661.323 342.105C662.118 341.314 663.403 341.314 664.194 342.109L671.394 349.359L687.779 333.066C688.574 332.279 689.852 332.279 690.642 333.07L694.703 337.131C695.494 337.921 695.494 339.207 694.699 339.998L672.83 361.779C672.039 362.569 670.757 362.566 669.967 361.771Z" fill="#E1E6EB"/>
<path d="M516.915 202.774V601.307C516.915 603.107 516.742 604.872 516.412 606.572C515.614 610.672 513.906 614.444 511.507 617.668C506.502 624.4 498.492 628.76 489.465 628.76H329.939C320.908 628.76 312.898 624.4 307.897 617.668C305.495 614.444 303.788 610.672 302.991 606.572C302.656 604.872 302.482 603.107 302.482 601.307V202.774C302.482 202.433 302.489 202.091 302.505 201.749C302.508 201.615 302.515 201.473 302.521 201.335C303.266 186.838 315.257 175.316 329.939 175.316H489.465C504.141 175.316 516.132 186.838 516.88 201.335C516.888 201.473 516.892 201.615 516.895 201.749C516.911 202.091 516.915 202.433 516.915 202.774Z" fill="white"/>
<path d="M511.507 617.668C506.502 624.4 498.492 628.76 489.465 628.76H329.939C320.908 628.76 312.898 624.4 307.897 617.668H511.507Z" fill="#F0F2F5"/>
<path d="M489.369 168.385H329.846C310.883 168.385 295.457 183.81 295.457 202.774V601.307C295.457 620.267 310.883 635.696 329.846 635.696H489.369C508.333 635.696 523.758 620.267 523.758 601.307V202.774C523.758 183.81 508.333 168.385 489.369 168.385ZM489.369 175.317C504.533 175.317 516.826 187.61 516.826 202.774V601.307C516.826 616.467 504.533 628.761 489.369 628.761H329.846C314.682 628.761 302.39 616.467 302.39 601.307V202.774C302.39 187.61 314.682 175.317 329.846 175.317H489.369Z" fill="#1F4168"/>
<path d="M489.369 175.316H329.846C314.682 175.316 302.39 187.61 302.39 202.774V601.307C302.39 616.467 314.682 628.76 329.846 628.76H489.369C504.533 628.76 516.826 616.467 516.826 601.307V202.774C516.826 187.61 504.533 175.316 489.369 175.316ZM489.369 177.051C503.55 177.051 515.091 188.589 515.091 202.774V601.307C515.091 615.488 503.55 627.03 489.369 627.03H329.846C315.662 627.03 304.123 615.488 304.123 601.307V202.774C304.123 188.589 315.662 177.051 329.846 177.051H489.369Z" fill="#1B1A2E"/>
<path d="M482.483 185.507V192.392H496.538V185.507H482.483Z" fill="#1F4168"/>
<path d="M479.8 186.85V191.045H481.927V186.85H479.8Z" fill="#1F4168"/>
<path d="M334.93 192.392H337.048V188.949H334.93V192.392Z" fill="#1F4168"/>
<path d="M331.007 192.392H333.125V187.802H331.007V192.392Z" fill="#1F4168"/>
<path d="M327.084 192.392H329.202V186.654H327.084V192.392Z" fill="#1F4168"/>
<path d="M323.16 192.392H325.279V185.507H323.16V192.392Z" fill="#1F4168"/>
<path d="M448.946 192.454H371.999C370.081 192.454 368.525 190.899 368.525 188.98C368.525 187.061 370.081 185.507 371.999 185.507H448.946C450.861 185.507 452.415 187.061 452.415 188.98C452.415 190.899 450.861 192.454 448.946 192.454Z" fill="#F0F2F5"/>
<path d="M443.538 618.244H378.211C377.893 618.244 377.635 617.987 377.635 617.668C377.635 617.35 377.893 617.093 378.211 617.093H443.538C443.857 617.093 444.114 617.35 444.114 617.668C444.114 617.987 443.857 618.244 443.538 618.244Z" fill="#1F4168"/>
<path d="M494.147 226.313H325.068C322.366 226.313 320.176 224.122 320.178 221.42L320.187 212.17C320.189 209.472 322.378 207.288 325.076 207.288H494.139C496.838 207.288 499.025 209.472 499.029 212.17L499.037 221.42C499.041 224.122 496.849 226.313 494.147 226.313Z" fill="#F0F2F5"/>
<path d="M488.463 212.634C488.463 213.16 488.037 213.586 487.511 213.586C486.985 213.586 486.559 213.16 486.559 212.634C486.559 212.108 486.985 211.682 487.511 211.682C488.037 211.682 488.463 212.108 488.463 212.634Z" fill="#D2D9E1"/>
<path d="M488.463 216.799C488.463 217.324 488.037 217.75 487.511 217.75C486.985 217.75 486.559 217.324 486.559 216.799C486.559 216.277 486.985 215.851 487.511 215.851C488.037 215.851 488.463 216.277 488.463 216.799Z" fill="#D2D9E1"/>
<path d="M488.463 220.967C488.463 221.492 488.037 221.918 487.511 221.918C486.985 221.918 486.559 221.492 486.559 220.967C486.559 220.441 486.985 220.015 487.511 220.015C488.037 220.015 488.463 220.441 488.463 220.967Z" fill="#D2D9E1"/>
<path d="M335.599 216.798C335.599 218.595 334.144 220.049 332.35 220.049C330.556 220.049 329.101 218.595 329.101 216.798C329.101 215.006 330.556 213.551 332.35 213.551C334.144 213.551 335.599 215.006 335.599 216.798Z" fill="#D2D9E1"/>
<path d="M581.533 286.084V511.426C581.533 515.636 578.121 519.056 573.907 519.056H359.763C355.551 519.056 352.138 515.636 352.138 511.426V286.084C352.138 281.873 355.551 278.461 359.763 278.461H573.907C578.121 278.461 581.533 281.873 581.533 286.084Z" fill="#F0F2F5"/>
<path d="M588.488 279.482V504.821C588.488 509.035 585.075 512.451 580.861 512.451H366.717C362.505 512.451 359.093 509.035 359.093 504.821V279.482C359.093 275.272 362.505 271.856 366.717 271.856H580.861C585.075 271.856 588.488 275.272 588.488 279.482Z" fill="white"/>
<path d="M588.488 279.482V301.321H359.093V279.482C359.093 275.272 362.505 271.856 366.717 271.856H580.861C585.075 271.856 588.488 275.272 588.488 279.482Z" fill="#E1E6EB"/>
<path d="M366.718 272.048C362.618 272.048 359.283 275.383 359.283 279.482V504.825C359.283 508.924 362.618 512.259 366.718 512.259H580.865C584.964 512.259 588.3 508.924 588.3 504.825V279.482C588.3 275.383 584.964 272.048 580.865 272.048H366.718ZM580.865 512.643H366.718C362.407 512.643 358.899 509.135 358.899 504.825V279.482C358.899 275.172 362.407 271.664 366.718 271.664H580.865C585.175 271.664 588.683 275.172 588.683 279.482V504.825C588.683 509.135 585.175 512.643 580.865 512.643Z" fill="#1F4168"/>
<path d="M588.488 300.615V301.321H359.093V279.482C359.093 275.272 362.505 271.856 366.717 271.856H538.777C540.857 271.856 542.546 273.545 542.546 275.621V297.64C542.546 299.279 543.874 300.615 545.52 300.615H588.488Z" fill="#1F4168"/>
<path d="M573.039 281.348L570.955 279.264C570.433 278.742 569.589 278.742 569.067 279.264L565.712 282.618L562.358 279.264C561.836 278.742 560.991 278.742 560.469 279.264L558.385 281.348C557.867 281.87 557.867 282.714 558.385 283.236L561.74 286.591L558.385 289.945C557.867 290.463 557.867 291.308 558.385 291.83L560.469 293.914C560.991 294.436 561.836 294.436 562.358 293.914L565.712 290.559L569.067 293.914C569.589 294.436 570.433 294.436 570.955 293.914L573.039 291.83C573.561 291.308 573.561 290.463 573.039 289.945L569.685 286.591L573.039 283.236C573.561 282.714 573.561 281.87 573.039 281.348Z" fill="#1F4168"/>
<path d="M439.976 290.552H371.475C370.168 290.552 369.108 289.492 369.108 288.183V285.105C369.108 283.8 370.168 282.741 371.475 282.741H439.976C441.281 282.741 442.34 283.8 442.34 285.105V288.183C442.34 289.492 441.281 290.552 439.976 290.552Z" fill="white"/>
<path d="M506.947 361.771C506.947 370.499 503.585 378.448 498.081 384.381C492.002 390.933 483.324 395.028 473.686 395.028C464.045 395.028 455.363 390.929 449.295 384.378C443.791 378.444 440.425 370.499 440.425 361.771C440.425 343.402 455.317 328.506 473.686 328.506C492.055 328.506 506.947 343.402 506.947 361.771Z" fill="#F0F2F5"/>
<path d="M498.081 384.381C492.002 390.933 483.324 395.028 473.686 395.028C464.045 395.028 455.363 390.929 449.295 384.378C450.424 383.034 451.851 381.925 453.498 381.15L462.705 376.836C464.417 376.034 465.818 374.775 466.793 373.243C467.764 371.708 468.313 369.904 468.313 368.02L465.991 365.701C464.413 364.124 463.527 361.986 463.527 359.756V350.764C463.527 349.651 463.749 348.56 464.168 347.551C464.586 346.542 465.2 345.613 465.991 344.822C467.565 343.245 469.702 342.362 471.932 342.362H475.44C476.553 342.362 477.647 342.585 478.657 343.003C479.666 343.421 480.595 344.035 481.382 344.822C482.959 346.4 483.842 348.534 483.842 350.764V359.756C483.842 361.986 482.959 364.124 481.382 365.701L479.06 368.02C479.06 371.796 481.243 375.231 484.663 376.836L493.871 381.15C495.525 381.925 496.949 383.034 498.081 384.381Z" fill="#1F4168"/>
<path d="M546.222 441.446H401.357C397.796 441.446 394.906 438.556 394.906 434.994V414.449C394.906 410.883 397.796 407.997 401.357 407.997H546.222C549.788 407.997 552.674 410.883 552.674 414.449V434.994C552.674 438.556 549.788 441.446 546.222 441.446Z" fill="#F0F2F5"/>
<path d="M546.222 485.266H401.357C397.796 485.266 394.906 482.376 394.906 478.81V458.268C394.906 454.703 397.796 451.813 401.357 451.813H546.222C549.788 451.813 552.674 454.703 552.674 458.268V478.81C552.674 482.376 549.788 485.266 546.222 485.266Z" fill="#F0F2F5"/>
<path d="M500.937 430.734H411.962C408.642 430.734 405.952 428.04 405.952 424.72C405.952 421.4 408.642 418.709 411.962 418.709H500.937C504.257 418.709 506.947 421.4 506.947 424.72C506.947 428.04 504.257 430.734 500.937 430.734Z" fill="#D2D9E1"/>
<path d="M405.952 468.524C405.952 471.84 408.638 474.523 411.951 474.523C415.263 474.523 417.95 471.84 417.95 468.524C417.95 465.212 415.263 462.529 411.951 462.529C408.638 462.529 405.952 465.212 405.952 468.524Z" fill="#D2D9E1"/>
<path d="M426.7 468.524C426.7 471.84 429.387 474.523 432.699 474.523C436.011 474.523 438.698 471.84 438.698 468.524C438.698 465.212 436.011 462.529 432.699 462.529C429.387 462.529 426.7 465.212 426.7 468.524Z" fill="#D2D9E1"/>
<path d="M449.449 468.524C449.449 471.84 452.135 474.523 455.448 474.523C458.76 474.523 461.447 471.84 461.447 468.524C461.447 465.212 458.76 462.529 455.448 462.529C452.135 462.529 449.449 465.212 449.449 468.524Z" fill="#D2D9E1"/>
<path d="M472.201 468.524C472.201 471.84 474.884 474.523 478.2 474.523C481.512 474.523 484.195 471.84 484.195 468.524C484.195 465.212 481.512 462.529 478.2 462.529C474.884 462.529 472.201 465.212 472.201 468.524Z" fill="#D2D9E1"/>
<path d="M494.949 468.524C494.949 471.84 497.636 474.523 500.948 474.523C504.26 474.523 506.947 471.84 506.947 468.524C506.947 465.212 504.26 462.529 500.948 462.529C497.636 462.529 494.949 465.212 494.949 468.524Z" fill="#D2D9E1"/>
<path d="M643.66 468.439H544.23C535.602 468.439 528.605 461.443 528.605 452.815V353.385C528.605 344.753 535.602 337.76 544.23 337.76H643.66C652.288 337.76 659.285 344.753 659.285 353.385V452.815C659.285 461.443 652.288 468.439 643.66 468.439Z" fill="#F9A21B"/>
<path d="M598.854 409.41C597.288 410.584 596.271 412.353 596.271 414.315V414.649C596.271 416.023 596.774 417.331 597.63 418.418C598.24 419.2 598.605 420.172 598.605 421.25C598.605 424.155 595.93 426.447 592.901 425.794C591.266 425.43 589.885 424.144 589.466 422.524C589.056 420.966 589.416 419.504 590.261 418.402C591.055 417.37 591.358 416.034 591.358 414.725V414.123C591.358 412.184 590.338 410.453 588.833 409.252C586.572 407.441 585.294 404.474 585.939 401.242C586.553 398.183 588.964 395.661 591.999 394.967C597.361 393.731 602.124 397.761 602.124 402.904C602.124 405.579 600.835 407.924 598.854 409.41ZM619.657 380.674H608.081V368.879C608.081 361.188 602.059 354.674 594.368 354.452C586.377 354.222 579.806 360.65 579.806 368.58V371.95C579.806 372.518 580.266 372.974 580.831 372.974C581.399 372.974 581.855 372.518 581.855 371.95V368.868C581.855 362.09 587.401 356.375 594.179 356.501C600.746 356.624 606.035 361.982 606.035 368.58V380.674H568.234C566.173 380.674 564.5 382.343 564.5 384.404V435.831C564.5 437.896 566.173 439.565 568.238 439.565H619.657C621.718 439.565 623.387 437.896 623.387 435.835V384.404C623.387 382.343 621.718 380.674 619.657 380.674Z" fill="white"/>
<path d="M602.124 402.904C602.124 405.579 600.835 407.924 598.854 409.41C597.284 410.588 596.271 412.353 596.271 414.315V414.645C596.271 416.023 596.774 417.331 597.63 418.418C598.24 419.201 598.605 420.175 598.605 421.25C598.605 424.156 595.929 426.447 592.905 425.794C591.266 425.43 589.888 424.144 589.466 422.528C589.055 420.97 589.416 419.504 590.261 418.406C591.055 417.37 591.358 416.034 591.358 414.725V414.123C591.358 412.184 590.341 410.457 588.833 409.252C586.572 407.441 585.294 404.474 585.939 401.238C586.553 398.183 588.963 395.661 591.999 394.967C597.357 393.731 602.124 397.761 602.124 402.904Z" fill="#F9A21B"/>
<path d="M573.377 571.419H360.294C355.789 571.419 352.136 567.766 352.136 563.26V541.275C352.136 536.769 355.789 533.119 360.294 533.119H573.377C577.879 533.119 581.533 536.769 581.533 541.275V563.26C581.533 567.766 577.879 571.419 573.377 571.419Z" fill="#F0F2F5"/>
<path d="M580.332 564.818H367.249C362.743 564.818 359.091 561.164 359.091 556.658V534.673C359.091 530.168 362.743 526.518 367.249 526.518H580.332C584.834 526.518 588.488 530.168 588.488 534.673V556.658C588.488 561.164 584.834 564.818 580.332 564.818Z" fill="white"/>
<path d="M367.249 526.709C362.856 526.709 359.283 530.283 359.283 534.673V556.658C359.283 561.053 362.856 564.626 367.249 564.626H580.332C584.722 564.626 588.296 561.053 588.296 556.658V534.673C588.296 530.283 584.722 526.709 580.332 526.709H367.249ZM580.332 565.01H367.249C362.645 565.01 358.899 561.264 358.899 556.658V534.673C358.899 530.068 362.645 526.326 367.249 526.326H580.332C584.934 526.326 588.68 530.068 588.68 534.673V556.658C588.68 561.264 584.934 565.01 580.332 565.01Z" fill="#1F4168"/>
<path d="M388.2 540.078C385.118 540.078 382.612 542.584 382.612 545.666C382.612 547.159 383.194 548.56 384.251 549.615C385.299 550.671 386.7 551.254 388.2 551.254H559.379C562.458 551.254 564.968 548.748 564.968 545.666C564.968 544.169 564.384 542.764 563.329 541.716C562.281 540.661 560.876 540.078 559.379 540.078H388.2ZM559.379 551.638H388.2C386.6 551.638 385.099 551.016 383.978 549.888C382.85 548.759 382.228 547.259 382.228 545.666C382.228 542.373 384.907 539.694 388.2 539.694H559.379C560.98 539.694 562.481 540.316 563.601 541.444C564.73 542.565 565.351 544.065 565.351 545.666C565.351 548.959 562.673 551.638 559.379 551.638Z" fill="#1F4168"/>
<path d="M382.42 545.666C382.42 547.263 383.065 548.702 384.113 549.753C385.157 550.801 386.604 551.446 388.2 551.446H497.152V539.886H388.2C385.003 539.886 382.42 542.473 382.42 545.666Z" fill="#1F4168"/>
<path d="M364.872 244.586C361.791 244.586 359.285 247.093 359.285 250.175C359.285 251.668 359.866 253.069 360.922 254.124C361.971 255.18 363.373 255.763 364.872 255.763H493.257C496.339 255.763 498.845 253.257 498.845 250.175C498.845 248.678 498.265 247.273 497.21 246.225C496.158 245.17 494.757 244.586 493.257 244.586H364.872ZM493.257 256.147H364.872C363.27 256.147 361.771 255.525 360.65 254.397C359.523 253.268 358.901 251.767 358.901 250.175C358.901 246.882 361.58 244.203 364.872 244.203H493.257C494.857 244.203 496.358 244.824 497.479 245.953C498.607 247.073 499.229 248.574 499.229 250.175C499.229 253.468 496.55 256.147 493.257 256.147Z" fill="#F0F2F5"/>
<path d="M359.093 250.175C359.093 251.771 359.737 253.211 360.786 254.258C361.828 255.31 363.275 255.955 364.872 255.955H431.03V244.394H364.872C361.678 244.394 359.093 246.981 359.093 250.175Z" fill="#F0F2F5"/>
<path d="M303.16 667.099V677.209C302.423 678.963 302.043 680.843 302.043 682.743V689.552H335.286V686.04C335.286 682.517 333.945 679.124 331.537 676.556L327.389 672.127V666.827L303.16 667.099Z" fill="#F9A21B"/>
<path d="M332.392 694.415H304.113C302.97 694.415 302.043 693.49 302.043 692.346V689.552H335.286V691.525C335.286 693.122 333.99 694.415 332.392 694.415Z" fill="#F0F2F5"/>
<path d="M249.918 689.552H212.381V686.167C212.381 680.448 217.017 675.812 222.736 675.812L225.062 666.516L249.918 667.667V689.552Z" fill="#F9A21B"/>
<path d="M248.467 694.415H215.108C213.602 694.415 212.381 693.195 212.381 691.69V689.552H249.918V692.964C249.918 693.766 249.269 694.415 248.467 694.415Z" fill="#F0F2F5"/>
<path d="M222.999 661.373L224.463 668.911C228.158 667.821 231.661 669.659 235.347 671.498C239.735 673.685 244.382 675.873 249.918 673.114L253.599 665.368C254.336 663.818 254.814 662.156 255.011 660.452L277.111 481.24L279.603 485.362C280.573 486.962 281.197 488.747 281.437 490.604C286.178 527.277 295.349 607.582 295.349 607.582L303.16 672.914C306.649 674.188 310.393 672.83 314.058 671.467C318.891 669.671 323.588 667.875 327.389 672.127L331.09 656.122C331.653 653.689 331.805 651.179 331.542 648.696L330.142 635.496L322.5 421.097L293.118 420.344L288.349 420.218L276.83 419.922L268.942 419.719L242.271 419.036L240.322 441.876L225.967 639.204L223.175 651.306C222.412 654.61 222.352 658.041 222.999 661.373Z" fill="#1B1A2E"/>
<path d="M229.174 385.137L236.145 368.875L238.148 391.843L229.174 385.137ZM319.075 386.036C336.868 375.78 339.029 342.193 339.01 326.234C339.006 321.08 335.961 316.416 331.248 314.328L305.748 303.854C305.748 303.854 302.712 299.69 301.579 298.404C300.084 296.704 297.715 296.051 295.47 296.351L265.3 300.365C263.205 300.646 261.351 301.862 260.26 303.67L259.677 304.641L234.017 313.856C229.093 315.622 225.233 319.525 223.512 324.465L204.316 379.653C201.881 386.661 204.03 394.445 209.72 399.212L237.465 422.432L229.227 463.895L235.199 464.701L251.238 466.851C258.285 467.799 264.936 463.815 267.541 457.416C267.848 456.668 268.1 455.885 268.287 455.075L271.144 442.793L276.024 421.81L282.692 442.214C282.692 442.214 286.913 453.989 288.427 456.634C292.548 463.826 302.294 466.701 310.783 464.102L319.843 461.324L333.429 457.155L318.999 395.869L319.075 386.036Z" fill="#F9A21B"/>
<path d="M300.653 303.854L291.127 320.788C283.072 325.348 275.69 339.149 275.69 339.149L280.824 347.113C277.288 359.737 274.095 374.184 274.109 374.548C274.113 374.644 273.093 371.505 271.576 366.799C268.795 358.156 264.344 344.235 261.496 335.319C259.727 329.777 259.412 323.874 260.581 318.174L263.386 304.488C263.477 302.887 264.68 301.567 266.266 301.336L294.752 297.579C296.941 297.287 299.019 298.615 299.677 300.722L300.653 303.854Z" fill="#1F4168"/>
<path d="M281.923 343.241C281.923 343.241 274.095 374.184 274.109 374.548C274.113 374.644 270.486 363.41 270.486 363.41L275.852 320.942L271.538 314.167L276.863 309.423L281.686 312.29L278.929 320.385L281.923 343.241Z" fill="#F9A21B"/>
<path d="M282.692 442.214L271.144 442.793L276.024 421.81L282.692 442.214Z" fill="#1F4168"/>
<path d="M265.721 274.216V303.605L276.863 309.423L292.761 303.605V274.216H265.721Z" fill="#FFC89F"/>
<path d="M275.029 300.672C284.975 300.672 293.038 292.609 293.038 282.664V260.664C293.038 250.72 284.975 242.656 275.029 242.656C265.083 242.656 257.021 250.72 257.021 260.664V282.664C257.021 292.609 265.083 300.672 275.029 300.672Z" fill="#FFC89F"/>
<path d="M265.721 298.093V301.736C267.595 301.751 271.159 301.321 274.338 299.625C270.961 300.342 268.176 299.521 265.721 298.093Z" fill="#FF9A6C"/>
<path d="M263.07 272.29C263.07 273.184 263.796 273.909 264.691 273.909C265.587 273.909 266.312 273.184 266.312 272.29C266.312 271.392 265.587 270.666 264.691 270.666C263.796 270.666 263.07 271.392 263.07 272.29Z" fill="#1B1B2F"/>
<path d="M260.703 270.724C261.136 270.302 261.667 269.975 262.236 269.753C262.805 269.53 263.421 269.404 264.038 269.423C264.115 269.419 264.192 269.423 264.268 269.43L264.497 269.457L264.727 269.48C264.803 269.488 264.877 269.511 264.952 269.526C265.101 269.565 265.251 269.595 265.399 269.638C265.543 269.688 265.686 269.745 265.829 269.799L266.042 269.883L266.245 269.987L266.648 270.202C266.904 270.367 267.148 270.547 267.392 270.724C267.124 270.582 266.871 270.417 266.603 270.282L266.194 270.098L265.99 270.006L265.777 269.937C265.635 269.891 265.493 269.845 265.353 269.795C265.208 269.764 265.062 269.734 264.917 269.703C264.844 269.691 264.773 269.668 264.699 269.661L264.478 269.642C264.33 269.63 264.183 269.599 264.035 269.611C263.442 269.592 262.851 269.703 262.286 269.891C262.144 269.933 262.008 269.995 261.868 270.048C261.733 270.11 261.597 270.175 261.465 270.244C261.197 270.378 260.944 270.543 260.703 270.724Z" fill="#1B1B2F"/>
<path d="M280.083 272.29C280.083 273.184 280.808 273.909 281.704 273.909C282.599 273.909 283.325 273.184 283.325 272.29C283.325 271.392 282.599 270.666 281.704 270.666C280.808 270.666 280.083 271.392 280.083 272.29Z" fill="#1B1B2F"/>
<path d="M277.716 270.724C278.148 270.302 278.68 269.975 279.249 269.753C279.818 269.53 280.434 269.404 281.05 269.423C281.127 269.419 281.204 269.423 281.281 269.43L281.51 269.457L281.74 269.48C281.815 269.488 281.89 269.511 281.965 269.526C282.114 269.565 282.264 269.595 282.412 269.638C282.556 269.688 282.699 269.745 282.842 269.799L283.055 269.883L283.257 269.987L283.661 270.202C283.917 270.367 284.162 270.547 284.405 270.724C284.137 270.582 283.884 270.417 283.616 270.282L283.207 270.098L283.003 270.006L282.79 269.937C282.648 269.891 282.506 269.845 282.366 269.795C282.221 269.764 282.075 269.734 281.93 269.703C281.857 269.691 281.785 269.668 281.712 269.661L281.491 269.642C281.342 269.63 281.196 269.599 281.048 269.611C280.455 269.592 279.863 269.703 279.299 269.891C279.157 269.933 279.021 269.995 278.881 270.048C278.745 270.11 278.61 270.175 278.477 270.244C278.21 270.378 277.956 270.543 277.716 270.724Z" fill="#1B1B2F"/>
<path d="M270.622 274.639C270.564 275.337 270.484 276.036 270.401 276.73C270.321 277.429 270.225 278.124 270.13 278.818C270.078 279.168 270.021 279.502 270.05 279.843C270.067 280.185 270.147 280.519 270.28 280.833C270.415 281.144 270.62 281.432 270.906 281.616C271.198 281.808 271.497 281.992 271.788 282.188C271.475 282.031 271.168 281.862 270.858 281.697C270.54 281.517 270.307 281.217 270.147 280.895C269.986 280.572 269.901 280.215 269.871 279.855C269.835 279.498 269.894 279.133 269.942 278.792C270.042 278.097 270.142 277.402 270.257 276.711C270.37 276.02 270.486 275.326 270.622 274.639Z" fill="#1B1B2F"/>
<path d="M276.532 284.307C276.017 284.468 275.505 284.595 274.992 284.714C274.48 284.829 273.967 284.933 273.453 285.028C272.939 285.128 272.422 285.213 271.903 285.289C271.382 285.362 270.86 285.439 270.32 285.462C270.796 285.209 271.295 285.017 271.802 284.856C272.309 284.695 272.826 284.568 273.348 284.468C273.87 284.372 274.398 284.303 274.929 284.272C275.461 284.242 275.996 284.234 276.532 284.307Z" fill="#E43F5A"/>
<path d="M260.703 263.339C260.795 262.982 260.988 262.683 261.209 262.414C261.323 262.284 261.447 262.161 261.579 262.046C261.646 261.988 261.716 261.935 261.787 261.885C261.858 261.835 261.927 261.773 262.005 261.735C262.603 261.367 263.327 261.163 264.05 261.182C264.231 261.171 264.408 261.209 264.587 261.228L264.853 261.271C264.94 261.29 265.024 261.32 265.109 261.343C265.279 261.397 265.447 261.455 265.609 261.524C265.766 261.604 265.918 261.693 266.066 261.781C266.141 261.823 266.213 261.873 266.284 261.923C266.351 261.977 266.418 262.031 266.482 262.092C266.611 262.203 266.734 262.326 266.851 262.449C266.965 262.576 267.06 262.725 267.152 262.871C267.244 263.017 267.325 263.174 267.392 263.339C267.016 263.347 266.705 263.297 266.4 263.266C266.247 263.255 266.098 263.243 265.957 263.224C265.885 263.216 265.817 263.201 265.748 263.19C265.678 263.186 265.607 263.186 265.54 263.178C265.404 263.167 265.271 263.155 265.143 263.136C265.013 263.128 264.884 263.128 264.76 263.113C264.697 263.109 264.636 263.098 264.573 263.098C264.511 263.098 264.449 263.094 264.388 263.094L264.205 263.086L264.114 263.074L264.023 263.078C263.536 263.063 263.053 263.094 262.517 263.132C261.977 263.174 261.414 263.251 260.703 263.339Z" fill="#1B1B2F"/>
<path d="M277.716 263.339C277.808 262.982 278 262.683 278.222 262.414C278.336 262.284 278.46 262.161 278.592 262.046C278.658 261.988 278.729 261.935 278.799 261.885C278.871 261.835 278.94 261.773 279.017 261.735C279.615 261.367 280.34 261.163 281.063 261.182C281.244 261.171 281.421 261.209 281.6 261.228L281.865 261.271C281.953 261.29 282.037 261.32 282.122 261.343C282.292 261.397 282.46 261.455 282.622 261.524C282.779 261.604 282.931 261.693 283.079 261.781C283.154 261.823 283.226 261.873 283.297 261.923C283.364 261.977 283.431 262.031 283.494 262.092C283.624 262.203 283.747 262.326 283.863 262.449C283.978 262.576 284.072 262.725 284.165 262.871C284.257 263.017 284.338 263.174 284.405 263.339C284.029 263.347 283.717 263.297 283.413 263.266C283.259 263.255 283.111 263.243 282.97 263.224C282.898 263.216 282.829 263.201 282.761 263.19C282.69 263.186 282.62 263.186 282.553 263.178C282.416 263.167 282.284 263.155 282.156 263.136C282.025 263.128 281.897 263.128 281.772 263.113C281.709 263.109 281.648 263.098 281.586 263.098C281.524 263.098 281.462 263.094 281.401 263.094L281.218 263.086L281.126 263.074L281.035 263.078C280.549 263.063 280.066 263.094 279.53 263.132C278.989 263.174 278.427 263.251 277.716 263.339Z" fill="#1B1B2F"/>
<path d="M289.154 261.021L289.059 256.005C275.029 249.327 262.154 252.286 262.154 252.286C262.154 252.286 259.45 256.147 259.026 262.514C259.026 262.514 261.656 261.942 261.774 259.624C261.774 259.624 263.029 260.027 262.745 261.8C262.745 261.8 263.218 261.044 262.863 259.248L263.638 259.72C264.286 260.112 264.69 260.814 264.691 261.574C264.698 266.406 257.502 267.646 254.428 265.911C247.408 265.658 244.523 260.657 247.757 255.183C243.875 247.91 253.082 245.239 253.082 245.239C247.647 238.434 252.646 229.641 252.646 229.641C252.382 232.404 252.72 234.853 252.72 234.853C251.874 227.991 258.647 223.304 258.647 223.304C259.73 243.07 286.628 234.22 286.628 234.22C298.892 249.327 307.951 247.895 307.951 247.895C306.821 249.138 304.92 249.515 304.92 249.515L306.247 249.841C313.611 264.66 306.832 274.259 306.832 274.259C306.832 272.417 306.437 269.523 306.437 269.523C306.44 269.649 306.443 269.776 306.444 269.903C306.485 274.527 303.953 278.772 299.971 281.121C292.312 285.639 292.761 291.818 292.761 291.818L292.593 267.857L290.773 265.55C289.754 264.257 289.185 262.668 289.154 261.021Z" fill="#1B1A2E"/>
<path d="M294.796 281.95H293.86C292.009 281.95 290.509 280.45 290.509 278.6V272.62C290.509 270.77 292.009 269.269 293.86 269.269H294.796C296.646 269.269 298.146 270.77 298.146 272.62V278.6C298.146 280.45 296.646 281.95 294.796 281.95Z" fill="#FFC89F"/>
<path d="M293.298 271.261C293.62 271.223 293.952 271.246 294.276 271.319C294.598 271.399 294.909 271.534 295.193 271.718C295.759 272.082 296.206 272.643 296.43 273.288C296.538 273.61 296.609 273.952 296.607 274.289C296.607 274.623 296.596 274.938 296.58 275.26C296.553 275.905 296.511 276.546 296.432 277.191C296.353 276.546 296.312 275.905 296.284 275.26C296.264 274.942 296.268 274.612 296.248 274.301C296.24 273.998 296.173 273.698 296.072 273.414C295.979 273.126 295.833 272.858 295.654 272.616C295.477 272.366 295.265 272.144 295.022 271.956C294.778 271.772 294.511 271.61 294.22 271.495C293.929 271.38 293.62 271.307 293.298 271.261Z" fill="#FF9A6C"/>
<path d="M294.54 278.12C294.36 278.032 294.214 277.893 294.09 277.744C293.967 277.59 293.871 277.418 293.802 277.233C293.734 277.049 293.695 276.853 293.688 276.658C293.684 276.462 293.707 276.266 293.787 276.082C293.866 276.266 293.922 276.439 293.982 276.608L294.158 277.103L294.347 277.594C294.41 277.759 294.48 277.928 294.54 278.12Z" fill="#FF9A6C"/>
<path d="M259.026 262.514C258.325 262.698 257.563 262.683 256.872 262.426C256.533 262.288 256.205 262.107 255.931 261.858C255.646 261.624 255.416 261.332 255.218 261.021C254.837 260.388 254.63 259.651 254.618 258.914C254.601 258.177 254.754 257.436 255.044 256.761C255.34 256.085 255.771 255.475 256.284 254.949C256.8 254.431 257.384 253.978 258.025 253.625C259.304 252.915 260.723 252.5 262.154 252.285C261.802 252.37 261.446 252.443 261.097 252.535C260.751 252.642 260.398 252.723 260.062 252.857L259.553 253.042L259.057 253.257C258.975 253.295 258.891 253.326 258.81 253.368L258.572 253.494C258.414 253.579 258.249 253.652 258.098 253.752C257.479 254.116 256.906 254.558 256.408 255.072C255.912 255.586 255.499 256.181 255.219 256.837C254.933 257.486 254.78 258.2 254.79 258.91C254.793 259.624 254.996 260.326 255.342 260.944C255.525 261.247 255.74 261.539 256.011 261.769C256.269 262.015 256.581 262.199 256.907 262.341C257.568 262.618 258.316 262.656 259.026 262.514Z" fill="#1F4168"/>
<path d="M254.371 261.136C254.535 261.593 254.774 262.015 255.069 262.395C255.358 262.779 255.697 263.124 256.069 263.424C256.811 264.026 257.677 264.495 258.608 264.69C259.071 264.794 259.551 264.825 260.018 264.756C260.485 264.686 260.931 264.506 261.313 264.23C261.695 263.95 262.002 263.57 262.228 263.147C262.462 262.729 262.615 262.268 262.745 261.8C262.658 262.28 262.521 262.748 262.31 263.193C262.096 263.631 261.793 264.038 261.402 264.345C261.013 264.656 260.534 264.848 260.045 264.928C259.554 265.005 259.051 264.978 258.568 264.875C257.605 264.656 256.716 264.176 255.976 263.535C255.242 262.894 254.626 262.08 254.371 261.136Z" fill="#1F4168"/>
<path d="M247.757 255.183C248.397 254.174 249.222 253.291 250.121 252.501C251.023 251.71 252.028 251.042 253.095 250.493C254.167 249.952 255.306 249.545 256.476 249.284C256.77 249.23 257.062 249.161 257.36 249.123L257.803 249.058L258.25 249.012C258.846 248.958 259.444 248.946 260.04 248.958C258.848 249 257.663 249.15 256.509 249.426C255.358 249.714 254.234 250.117 253.181 250.662C252.652 250.927 252.137 251.222 251.642 251.549C251.147 251.875 250.675 252.236 250.215 252.612C249.758 252.988 249.32 253.391 248.91 253.821C248.496 254.251 248.106 254.7 247.757 255.183Z" fill="#1F4168"/>
<path d="M248.699 251.714C248.83 251.349 249.061 251.023 249.322 250.735C249.446 250.585 249.604 250.466 249.746 250.332C249.902 250.217 250.057 250.094 250.221 249.991C250.883 249.572 251.635 249.311 252.397 249.162L252.684 249.1C252.78 249.085 252.877 249.077 252.974 249.066L253.554 249.004C253.747 248.989 253.942 248.989 254.136 248.981C254.33 248.981 254.524 248.966 254.718 248.981C255.104 249.008 255.491 249.023 255.876 249.066C256.258 249.127 256.641 249.181 257.021 249.246C256.635 249.223 256.251 249.188 255.868 249.158C255.484 249.135 255.099 249.139 254.716 249.127C254.333 249.139 253.949 249.15 253.568 249.173L252.999 249.246C252.904 249.261 252.809 249.269 252.715 249.284L252.435 249.346C252.25 249.388 252.059 249.411 251.877 249.469L251.331 249.637C251.154 249.703 250.98 249.779 250.804 249.852C250.63 249.929 250.467 250.029 250.297 250.113C250.132 250.209 249.978 250.321 249.819 250.428C249.676 250.551 249.517 250.662 249.388 250.8C249.11 251.061 248.869 251.368 248.699 251.714Z" fill="#1F4168"/>
<path d="M253.082 245.239C253.845 245.028 254.64 244.943 255.433 244.94C256.228 244.932 257.022 245.032 257.798 245.208C258.188 245.289 258.562 245.431 258.94 245.554L259.49 245.784C259.58 245.826 259.675 245.857 259.762 245.907L260.023 246.053C260.195 246.152 260.375 246.237 260.54 246.348L261.03 246.686C261.197 246.793 261.344 246.928 261.493 247.058C261.643 247.185 261.791 247.315 261.938 247.45C261.778 247.331 261.619 247.216 261.462 247.097C261.305 246.978 261.15 246.859 260.977 246.763L260.478 246.452C260.311 246.348 260.129 246.271 259.956 246.183C259.611 245.995 259.241 245.868 258.881 245.715C258.507 245.6 258.138 245.469 257.754 245.392C256.996 245.204 256.215 245.108 255.431 245.085L254.843 245.078C254.647 245.085 254.451 245.089 254.255 245.105C253.862 245.124 253.471 245.17 253.082 245.239Z" fill="#1F4168"/>
<path d="M252.72 234.853C252.849 235.709 253.213 236.515 253.71 237.213C254.205 237.92 254.858 238.499 255.584 238.952C256.313 239.401 257.114 239.731 257.943 239.954C258.773 240.173 259.625 240.307 260.484 240.368C262.202 240.499 263.932 240.361 265.64 240.123L266.282 240.031L266.92 239.915L267.557 239.8C267.77 239.762 267.98 239.708 268.191 239.666C268.613 239.57 269.04 239.497 269.458 239.386L270.72 239.079C269.062 239.578 267.375 239.988 265.662 240.265L265.02 240.368C264.805 240.399 264.589 240.418 264.373 240.441L263.726 240.514L263.076 240.556C262.209 240.618 261.338 240.61 260.47 240.56C259.602 240.491 258.738 240.349 257.897 240.119C257.058 239.889 256.239 239.555 255.507 239.075C254.775 238.599 254.12 237.993 253.634 237.267C253.393 236.903 253.188 236.519 253.031 236.112C252.875 235.705 252.758 235.283 252.72 234.853Z" fill="#1F4168"/>
<path d="M293.038 248.728C293.941 249.211 294.903 249.576 295.886 249.845C296.134 249.902 296.379 249.975 296.628 250.025C296.878 250.075 297.127 250.132 297.378 250.178L298.134 250.282C298.387 250.317 298.641 250.324 298.895 250.344C299.91 250.413 300.934 250.386 301.942 250.225C302.45 250.175 302.945 250.044 303.444 249.937C303.697 249.894 303.938 249.806 304.183 249.733L304.92 249.515L304.199 249.783C303.957 249.868 303.72 249.971 303.469 250.029C302.971 250.155 302.476 250.301 301.964 250.37C300.95 250.562 299.911 250.585 298.883 250.535C297.853 250.47 296.831 250.282 295.845 249.983C295.597 249.914 295.358 249.818 295.113 249.737C294.872 249.649 294.634 249.549 294.397 249.449C293.929 249.234 293.467 249.008 293.038 248.728Z" fill="#1F4168"/>
<path d="M289.214 243.746C289.328 244.279 289.463 244.809 289.624 245.327C289.779 245.849 289.956 246.363 290.159 246.87C290.563 247.876 291.059 248.851 291.726 249.703C292.38 250.555 293.25 251.261 294.282 251.572C295.318 251.883 296.441 251.737 297.47 251.391L297.086 251.533C296.958 251.583 296.829 251.629 296.695 251.656L296.296 251.76L295.888 251.821C295.342 251.879 294.78 251.86 294.243 251.714C293.161 251.418 292.256 250.681 291.576 249.818C290.907 248.939 290.402 247.949 290.023 246.92C289.647 245.891 289.366 244.828 289.214 243.746Z" fill="#1F4168"/>
<path d="M306.444 269.902C306.418 269.357 306.378 268.808 306.323 268.263C306.273 267.718 306.21 267.177 306.134 266.636C305.982 265.554 305.797 264.475 305.531 263.412C305.281 262.353 304.953 261.309 304.538 260.299C304.122 259.29 303.598 258.323 302.931 257.452C303.296 257.862 303.615 258.311 303.909 258.776C304.197 259.248 304.443 259.739 304.672 260.242C305.12 261.247 305.449 262.303 305.715 263.37C305.967 264.441 306.157 265.523 306.279 266.617C306.397 267.707 306.468 268.805 306.444 269.902Z" fill="#1F4168"/>
<path d="M279.538 277.191C276.039 277.191 273.201 274.355 273.201 270.854V268.647H285.874V270.854C285.874 274.355 283.037 277.191 279.538 277.191Z" fill="#1F4168"/>
<path d="M263.344 277.191C259.845 277.191 257.008 274.355 257.008 270.854V268.647H269.681V270.854C269.681 274.355 266.844 277.191 263.344 277.191Z" fill="#1F4168"/>
<path d="M292.473 269.538L266.312 269.492V268.647L292.473 268.59C292.736 268.59 292.949 268.801 292.949 269.066C292.949 269.327 292.736 269.538 292.473 269.538Z" fill="#1F4168"/>
<path d="M294.742 272.873C293.907 272.578 292.991 273.019 292.698 273.856L291.65 276.846C291.357 277.678 291.797 278.596 292.633 278.887L292.191 280.15C292.044 280.569 292.264 281.025 292.682 281.171C293.1 281.317 293.558 281.098 293.704 280.68L294.677 277.905L295.13 276.615L295.726 274.915C296.019 274.078 295.579 273.165 294.742 272.873Z" fill="#1F4168"/>
<path d="M243.869 423.158C241.61 423.158 246.312 411.386 246.312 411.386L251.999 414.023C251.999 414.023 248.101 421.427 244.28 423.062C244.123 423.127 243.987 423.158 243.869 423.158Z" fill="#D67813"/>
<path d="M311.539 389.854C309.405 389.854 307.314 388.772 306.127 386.796L303.113 381.783C304.021 383.119 305.499 384.266 305.499 384.266C308.396 386.523 311.312 387.164 313.694 387.164C316.853 387.164 319.075 386.036 319.075 386.036L315.087 388.757C313.997 389.501 312.761 389.854 311.539 389.854ZM303.113 381.783C302.987 381.599 302.872 381.407 302.774 381.219L303.113 381.783Z" fill="#D67813"/>
<path d="M236.145 368.875C233.738 364.446 232.584 359.445 232.806 354.41L233.419 340.477L236.145 368.875Z" fill="#D67813"/>
<path d="M276.024 421.811L265.947 420.916C262.676 420.628 259.547 419.442 256.906 417.489L252.575 414.292L275.066 402.351L291.345 403.844L277.489 404.988L278.269 408.849L291.021 409.84L278.486 411.386L277.98 416.238L288.283 415.961L275.585 417.569L276.024 421.811Z" fill="#D67813"/>
<path d="M314.708 347.344L312.658 344.411L321.816 334.866L314.708 347.344Z" fill="#D67813"/>
<path d="M274.032 318.086C274.028 318.078 273.062 317.606 272.253 317.207C271.833 317.004 271.376 316.9 270.917 316.9C270.614 316.9 270.309 316.946 270.015 317.038L267.384 317.856L271.538 314.167L274.032 318.086Z" fill="#142E4F"/>
<path d="M229.174 385.137C221.287 379.38 214.52 378.77 212 378.77C211.927 378.77 211.858 378.77 211.793 378.77L220.229 378.34C220.366 378.333 220.503 378.329 220.639 378.329C223.501 378.329 226.159 379.86 227.588 382.363L229.174 385.137ZM210.949 378.816C210.949 378.816 211.245 378.778 211.793 378.77L210.949 378.816Z" fill="#D67813"/>
<path d="M331.67 362.815L322.621 354.559L325.12 355.527C328.341 356.774 330.775 359.48 331.67 362.815Z" fill="#D67813"/>
<path d="M319.075 386.036C316.473 387.218 313.48 387.521 310.69 386.861C307.902 386.212 305.327 384.619 303.539 382.37C303.098 381.806 302.689 381.215 302.308 380.612L301.146 378.812L298.82 375.216L294.17 368.02L284.904 353.604L275.654 339.18L275.639 339.157L275.653 339.134L280.405 331.654L275.726 339.18L275.726 339.134L285.03 353.523L294.318 367.924L298.945 375.135L301.258 378.739C302.042 379.933 302.763 381.177 303.633 382.297C305.395 384.535 307.947 386.112 310.709 386.78C313.474 387.463 316.461 387.195 319.075 386.036Z" fill="#A65B3C"/>
<path d="M296.678 321.571L301.227 327.984L305.749 334.417C308.757 338.708 311.794 342.984 314.779 347.294L314.767 347.279L323.229 355.035C326.054 357.615 328.862 360.217 331.67 362.815C328.824 360.259 325.978 357.699 323.149 355.124L314.649 347.405L314.643 347.401L314.636 347.39C311.612 343.11 308.639 338.793 305.637 334.494L301.145 328.042L296.678 321.571Z" fill="#A65B3C"/>
<path d="M326.642 326.395C325.679 328.157 324.706 329.915 323.723 331.669L320.759 336.916L317.756 342.143C316.75 343.882 315.733 345.613 314.708 347.34C315.672 345.578 316.644 343.82 317.627 342.07L320.592 336.82L323.595 331.596C324.6 329.857 325.617 328.122 326.642 326.395Z" fill="#A65B3C"/>
<path d="M229.174 385.137C228.515 384.65 227.832 384.197 227.132 383.775C226.439 383.341 225.727 382.938 225.007 382.551C223.564 381.783 222.074 381.104 220.54 380.543C219.017 379.948 217.429 379.542 215.829 379.227L214.621 379.023C214.216 378.97 213.808 378.947 213.401 378.904L212.79 378.843C212.586 378.835 212.382 378.835 212.177 378.831L210.949 378.816C212.584 378.747 214.236 378.782 215.854 379.081C217.471 379.365 219.07 379.779 220.607 380.363C222.144 380.942 223.643 381.622 225.077 382.42C226.51 383.222 227.893 384.117 229.174 385.137Z" fill="#A65B3C"/>
<path d="M265.559 319.471C266.503 318.531 267.496 317.641 268.485 316.75C269.489 315.871 270.488 314.992 271.538 314.167C270.594 315.111 269.601 315.998 268.612 316.892C267.608 317.767 266.608 318.65 265.559 319.471Z" fill="#1B1A2E"/>
<path d="M262.908 306.817C263.163 307.865 263.409 308.917 263.643 309.968L264.327 313.127L264.969 316.294C265.177 317.353 265.373 318.412 265.559 319.471C265.304 318.427 265.058 317.376 264.824 316.324L264.14 313.165L263.499 309.999C263.29 308.94 263.094 307.88 262.908 306.817Z" fill="#1B1A2E"/>
<path d="M269.432 469.537C270.102 470.493 270.763 471.452 271.414 472.423L273.352 475.337L275.253 478.273C275.882 479.255 276.501 480.245 277.111 481.24C276.441 480.284 275.78 479.32 275.13 478.353L273.192 475.44L271.291 472.504C270.661 471.521 270.043 470.531 269.432 469.537Z" fill="#1F4168"/>
<path d="M227.768 662.252L228.777 661.879C229.116 661.764 229.446 661.618 229.796 661.534C230.491 661.354 231.18 661.146 231.893 661.043C233.305 660.763 234.753 660.705 236.189 660.747C237.628 660.801 239.058 661.031 240.446 661.407C241.14 661.595 241.822 661.826 242.492 662.087C243.154 662.363 243.808 662.662 244.423 663.031C243.153 662.367 241.792 661.899 240.409 661.549C239.024 661.208 237.608 660.978 236.181 660.939C234.758 660.882 233.324 660.939 231.918 661.189C230.502 661.388 229.128 661.803 227.768 662.252Z" fill="#1F4168"/>
<path d="M309.48 662.662L310.522 662.398C310.871 662.317 311.215 662.206 311.572 662.16C312.281 662.052 312.989 661.914 313.708 661.887C315.142 661.753 316.588 661.845 318.012 662.033C319.438 662.236 320.837 662.612 322.178 663.127C322.85 663.388 323.504 663.687 324.143 664.013C324.773 664.359 325.392 664.723 325.967 665.153C324.772 664.363 323.466 663.756 322.127 663.269C320.785 662.785 319.399 662.409 317.984 662.221C316.575 662.018 315.142 661.929 313.718 662.033C312.289 662.087 310.88 662.355 309.48 662.662Z" fill="#1F4168"/>
<path d="M254.951 396.375C253.542 396.034 252.135 395.681 250.731 395.312L246.524 394.203L242.329 393.048C240.933 392.656 239.539 392.253 238.148 391.843C239.557 392.184 240.964 392.537 242.368 392.902L246.574 394.015L250.769 395.17C252.166 395.562 253.56 395.965 254.951 396.375Z" fill="#A65B3C"/>
<path d="M236.145 368.875L235.688 364.611L235.262 360.343L234.41 351.807L233.623 343.268L233.23 338.996L232.867 334.724L233.323 338.988L233.75 343.256L234.601 351.788L235.388 360.332L235.781 364.604L236.145 368.875Z" fill="#A65B3C"/>
<path d="M259.308 305.336C258.843 306.1 258.371 306.859 257.888 307.612L256.425 309.857C256.306 310.041 256.162 310.229 256.071 310.41C255.978 310.598 255.929 310.805 255.927 311.016C255.922 311.438 256.125 311.853 256.451 312.125C256.802 312.375 257.192 312.617 257.56 312.862L258.67 313.615C257.894 313.165 257.127 312.728 256.36 312.24C255.982 311.96 255.755 311.488 255.753 311.016C255.751 310.782 255.804 310.544 255.905 310.329C256.014 310.11 256.145 309.941 256.265 309.75L257.765 307.531C258.27 306.79 258.785 306.061 259.308 305.336Z" fill="#A65B3C"/>
<path d="M260.858 313.016L256.553 314.221L254.401 314.823C254.221 314.873 254.039 314.912 253.879 314.996C253.717 315.077 253.57 315.188 253.45 315.322C253.204 315.591 253.072 315.956 253.081 316.317L253.314 320.776C253.402 322.266 253.45 323.755 253.578 325.236C253.846 328.199 254.497 331.124 255.501 333.922C255.999 335.327 256.61 336.681 257.25 338.025L259.14 342.078L266.639 358.305L270.387 366.423L274.109 374.548L270.303 366.461L266.523 358.359L258.966 342.158L257.092 338.102C256.457 336.754 255.845 335.388 255.351 333.976C254.353 331.162 253.709 328.222 253.451 325.248C253.327 323.759 253.286 322.273 253.204 320.784L252.987 316.317C252.982 315.933 253.128 315.549 253.389 315.269C253.518 315.127 253.674 315.012 253.845 314.927C254.018 314.843 254.205 314.804 254.383 314.754L256.541 314.175L260.858 313.016Z" fill="#A65B3C"/>
<path d="M274.109 374.548C275.003 372.871 275.923 371.205 276.865 369.551C277.804 367.893 278.772 366.254 279.743 364.619C280.725 362.988 281.721 361.364 282.74 359.756C283.759 358.148 284.812 356.563 285.887 354.993C284.871 356.601 283.862 358.213 282.866 359.837C281.872 361.46 280.876 363.08 279.907 364.715C278.923 366.342 277.958 367.985 276.992 369.624L274.109 374.548Z" fill="#A65B3C"/>
<path d="M274.109 374.548C274.634 372.257 275.169 369.962 275.716 367.674L277.373 360.808L279.073 353.957C279.646 351.673 280.23 349.393 280.824 347.113C280.299 349.409 279.764 351.7 279.217 353.991L277.56 360.854L275.859 367.709C275.287 369.992 274.703 372.272 274.109 374.548Z" fill="#A65B3C"/>
<path d="M276.023 421.811L275.737 415.904L275.481 409.997L274.97 398.183L274.524 386.37L274.301 380.459L274.109 374.548L274.395 380.455L274.651 386.362L275.162 398.176L275.608 409.993L275.831 415.9L276.023 421.811Z" fill="#A65B3C"/>
<path d="M301.401 328.322C302.388 326.756 303.384 325.198 304.389 323.647L307.421 319.003L308.182 317.852C308.409 317.476 308.495 317.011 308.411 316.577C308.371 316.363 308.291 316.151 308.177 315.963C308.066 315.775 307.904 315.614 307.748 315.441L306.817 314.413C305.576 313.043 304.344 311.665 303.12 310.279C304.396 311.619 305.666 312.962 306.926 314.313L307.87 315.33C308.023 315.499 308.196 315.664 308.322 315.875C308.448 316.079 308.537 316.309 308.583 316.547C308.678 317.019 308.587 317.529 308.339 317.944L307.581 319.111L304.512 323.728C303.485 325.267 302.447 326.798 301.401 328.322Z" fill="#A65B3C"/>
<path d="M306.113 304.61C306.43 305.428 306.738 306.249 307.035 307.074L307.908 309.554L308.326 310.801C308.487 311.216 308.524 311.707 308.378 312.141C308.307 312.356 308.203 312.563 308.064 312.739C307.923 312.92 307.762 313.066 307.61 313.223L306.672 314.148L307.541 313.162C307.685 312.997 307.845 312.839 307.967 312.67C308.091 312.498 308.179 312.302 308.237 312.098C308.348 311.688 308.323 311.258 308.16 310.859L307.727 309.615L306.896 307.12C306.624 306.288 306.364 305.451 306.113 304.61Z" fill="#A65B3C"/>
<path d="M320.945 353.032C321.761 352.94 322.586 352.924 323.407 352.959C324.23 352.986 325.05 353.074 325.863 353.197C326.675 353.335 327.484 353.496 328.274 353.73C329.069 353.945 329.838 354.241 330.594 354.559C329.813 354.306 329.032 354.06 328.236 353.872C327.444 353.673 326.642 353.508 325.834 353.389C325.029 353.251 324.215 353.166 323.399 353.105C322.584 353.047 321.765 353.009 320.945 353.032Z" fill="#A65B3C"/>
<path d="M294.302 417.965L294.732 420.179C294.883 420.912 294.97 421.672 295.311 422.336C295.624 423.016 296.132 423.588 296.725 424.029C297.332 424.455 298.037 424.751 298.775 424.835C299.512 424.942 300.252 424.781 300.997 424.678L303.228 424.351L307.691 423.703L312.158 423.081L314.391 422.77C315.136 422.663 315.891 422.613 316.57 422.302C317.94 421.73 318.965 420.41 319.2 418.94C319.244 418.759 319.242 418.571 319.264 418.387C319.267 418.199 319.266 418.011 319.254 417.827C319.218 417.458 319.148 417.086 319.084 416.717L318.701 414.495L319.13 416.706C319.202 417.074 319.279 417.443 319.324 417.819C319.34 418.007 319.345 418.199 319.346 418.387C319.327 418.575 319.333 418.767 319.292 418.955C319.066 420.46 318.026 421.818 316.62 422.421C315.92 422.743 315.147 422.801 314.412 422.916L312.181 423.238L307.718 423.891L303.251 424.509L301.018 424.82C300.644 424.87 300.275 424.927 299.899 424.969C299.52 425.012 299.136 425.015 298.758 424.962C298.001 424.87 297.278 424.562 296.66 424.121C296.055 423.664 295.538 423.073 295.227 422.379C294.892 421.688 294.822 420.92 294.686 420.187L294.302 417.965Z" fill="#A65B3C"/>
<path d="M318.701 414.495C316.672 414.818 314.643 415.132 312.611 415.436L306.515 416.322L300.412 417.17C298.377 417.447 296.34 417.712 294.302 417.965C296.33 417.639 298.36 417.328 300.391 417.025L306.488 416.134L312.59 415.29C314.626 415.013 316.663 414.749 318.701 414.495Z" fill="#A65B3C"/>
<path d="M241.915 426.397C243.2 425.733 244.37 424.869 245.465 423.933C246.561 422.996 247.579 421.964 248.498 420.855C250.343 418.633 251.777 416.092 252.83 413.413C253.359 412.069 253.778 410.688 254.131 409.291C254.442 407.886 254.724 406.466 254.862 405.03C255.035 403.595 255.088 402.152 255.109 400.709C255.114 399.987 255.089 399.262 255.081 398.54L254.951 396.375L255.128 398.54C255.152 399.262 255.193 399.983 255.203 400.709C255.196 402.156 255.151 403.603 254.988 405.042C254.861 406.485 254.589 407.913 254.287 409.329C253.942 410.734 253.532 412.127 253.008 413.482C251.928 416.172 250.466 418.717 248.596 420.935C246.726 423.138 244.504 425.096 241.915 426.397Z" fill="#A65B3C"/>
<path d="M237.465 422.432C238.259 423.035 239.004 423.691 239.754 424.344C240.488 425.011 241.226 425.675 241.915 426.397C241.12 425.798 240.375 425.138 239.626 424.486C238.892 423.818 238.154 423.154 237.465 422.432Z" fill="#A65B3C"/>
<path d="M274.944 347.344H270.557C270.07 347.344 269.674 346.948 269.674 346.461C269.674 345.974 270.07 345.578 270.557 345.578H274.944C275.431 345.578 275.826 345.974 275.826 346.461C275.826 346.948 275.431 347.344 274.944 347.344Z" fill="white"/>
<path d="M284.094 326.933L283.103 323.793C281.506 321.866 280.504 319.517 280.227 317.027C279.819 313.365 279.51 307.424 280.397 300.077L278.886 294.911L275.957 288.475C275.631 287.757 275.931 286.909 276.635 286.56C277.283 286.233 278.07 286.433 278.487 287.024L282.594 292.873C282.728 293.065 282.833 293.273 282.906 293.495L284.504 298.419C285.37 297.291 285.839 295.909 285.839 294.489V290.808L282.899 283.198C282.557 282.311 283.02 281.317 283.918 281.006C284.674 280.749 285.509 281.056 285.912 281.747L290.712 289.983L288.698 280.53C288.474 279.478 289.149 278.446 290.202 278.231C291.212 278.024 292.207 278.646 292.464 279.643L292.959 281.57L295.944 285.5L298.793 291.522C299.178 292.336 299.35 293.234 299.294 294.136L298.164 312.256C298.037 314.286 297.52 316.27 296.64 318.105L296.678 321.571C296.678 321.571 291.828 319.698 284.094 326.933Z" fill="#FFC89F"/>
<path d="M246.312 411.386L262.781 419.02C264.067 419.623 265.423 420.06 266.818 420.325L274.917 421.864C275.414 421.96 275.919 422.002 276.424 421.987L285.291 421.757C286.071 421.737 286.688 421.02 286.519 420.26C286.247 419.032 284.562 417.592 277.694 418.287L271.573 416.199L280.918 416.257L291.215 415.846C292.142 415.808 292.885 415.063 292.918 414.134C292.952 413.171 292.213 412.357 291.253 412.3L280.47 411.636L273.544 410.764L282.082 410.047L292.913 409.797C294.028 409.77 294.919 408.857 294.919 407.74C294.919 406.642 294.055 405.74 292.958 405.69L275.192 404.884L277.096 403.929L283.635 403.629L291.345 403.844C292.453 403.875 293.398 403.046 293.515 401.944C293.617 400.985 293.061 400.071 292.155 399.734C290.189 399.008 285.903 398.099 277.096 398.456L276.273 397.312C275.334 396.007 273.991 395.047 272.452 394.579L267.914 393.201C266.154 392.668 264.258 392.814 262.601 393.612L256.868 396.375H254.951C254.951 396.375 250.612 400.931 246.312 411.386Z" fill="#FFC89F"/>
<path d="M265.428 395.166L266.74 395.995C267.175 396.276 267.604 396.56 268.06 396.798C268.965 397.281 269.936 397.642 270.939 397.849C271.937 398.083 272.975 398.091 274.006 398.183C275.037 398.264 276.067 398.356 277.096 398.456C276.062 398.425 275.029 398.383 273.996 398.329C272.969 398.268 271.924 398.26 270.899 398.037C269.882 397.811 268.892 397.446 267.989 396.928C267.086 396.402 266.276 395.761 265.428 395.166Z" fill="#FF9A6C"/>
<path d="M290.202 278.231C290.603 278.147 291.036 278.177 291.414 278.354C291.794 278.523 292.121 278.815 292.325 279.183C292.431 279.363 292.5 279.571 292.548 279.766L292.707 280.361L293.026 281.551L293.024 281.547L294.39 285.512L295.068 287.496C295.291 288.156 295.523 288.828 295.653 289.519C295.79 290.21 295.862 290.916 295.866 291.618C295.872 292.325 295.777 293.023 295.718 293.718L295.302 297.89L295.594 293.706C295.642 293.008 295.72 292.313 295.703 291.622C295.695 290.928 295.62 290.233 295.48 289.557C295.347 288.874 295.117 288.222 294.888 287.558L294.22 285.57L292.894 281.593L292.893 281.589L292.893 281.586L292.597 280.388L292.449 279.793C292.403 279.59 292.346 279.402 292.251 279.221C292.068 278.864 291.762 278.569 291.396 278.392C291.032 278.208 290.606 278.158 290.202 278.231Z" fill="#FF9A6C"/>
<path d="M290.712 289.983C290.457 288.955 290.211 287.922 289.978 286.89L289.293 283.785L288.652 280.668C288.523 280.143 288.603 279.551 288.899 279.095C289.192 278.638 289.678 278.319 290.202 278.231C289.683 278.35 289.232 278.696 288.979 279.145C288.714 279.594 288.656 280.139 288.796 280.638L289.481 283.743L290.122 286.859C290.33 287.899 290.526 288.939 290.712 289.983Z" fill="#FF9A6C"/>
<path d="M283.918 281.006C284.344 280.853 284.837 280.876 285.247 281.087C285.452 281.19 285.64 281.332 285.787 281.509C285.937 281.689 286.04 281.893 286.161 282.085L287.553 284.418L290.31 289.105L290.65 289.692C290.706 289.795 290.765 289.872 290.819 290.003C290.862 290.106 290.901 290.218 290.938 290.325C291.085 290.759 291.184 291.212 291.232 291.668C291.284 292.125 291.272 292.59 291.234 293.042L291.137 294.397C291.008 296.205 290.865 298.009 290.712 299.817C290.794 298.005 290.886 296.197 290.99 294.386L291.069 293.031C291.103 292.578 291.112 292.133 291.059 291.688C291.009 291.242 290.909 290.805 290.764 290.383C290.728 290.279 290.689 290.175 290.647 290.072C290.616 289.991 290.539 289.88 290.488 289.788L290.144 289.2L287.426 284.491L286.08 282.131C285.966 281.935 285.868 281.728 285.733 281.555C285.597 281.378 285.421 281.233 285.225 281.129C284.834 280.91 284.35 280.868 283.918 281.006Z" fill="#FF9A6C"/>
<path d="M285.839 290.809C285.48 289.976 285.131 289.143 284.793 288.302L283.795 285.781L282.837 283.24C282.671 282.798 282.692 282.292 282.897 281.873C283.103 281.455 283.484 281.137 283.918 281.006C283.047 281.321 282.614 282.384 282.975 283.186L283.973 285.712L284.93 288.249C285.244 289.097 285.546 289.953 285.839 290.809Z" fill="#FF9A6C"/>
<path d="M284.504 298.419C285.242 297.326 285.693 296.059 285.737 294.758L285.765 292.785C285.78 292.125 285.799 291.469 285.839 290.808C285.879 291.469 285.897 292.125 285.913 292.785C285.925 293.445 285.933 294.098 285.929 294.766C285.864 296.097 285.373 297.418 284.504 298.419Z" fill="#FF9A6C"/>
<path d="M276.635 286.56C276.965 286.383 277.365 286.341 277.728 286.449C278.094 286.545 278.412 286.809 278.613 287.124L279.919 288.936L282.505 292.578C282.726 292.874 282.924 293.223 283.032 293.587L283.372 294.651L284.05 296.781L285.395 301.041L284.632 298.942C284.379 298.239 284.151 297.529 283.909 296.827L283.207 294.704L282.857 293.645C282.749 293.296 282.572 292.989 282.348 292.689L279.798 289.02L278.537 287.178C278.35 286.859 278.067 286.606 277.714 286.491C277.367 286.376 276.972 286.399 276.635 286.56Z" fill="#FF9A6C"/>
<path d="M279.841 307.949C279.848 306.633 279.878 305.317 279.963 304C280.044 302.687 280.155 301.375 280.312 300.066L280.315 300.101C279.806 298.381 279.293 296.662 278.799 294.938L278.804 294.95C278.165 293.534 277.524 292.117 276.898 290.697L275.958 288.567C275.785 288.21 275.749 287.784 275.879 287.412C276.004 287.04 276.283 286.725 276.635 286.56C276.288 286.736 276.025 287.059 275.916 287.427C275.802 287.796 275.849 288.195 276.028 288.533L277.016 290.643C277.676 292.048 278.32 293.464 278.968 294.873L278.97 294.881L278.972 294.885C279.486 296.604 279.98 298.331 280.479 300.054L280.484 300.07L280.482 300.089C280.324 301.39 280.183 302.699 280.078 304.008C279.978 305.32 279.886 306.633 279.841 307.949Z" fill="#FF9A6C"/>
<path d="M618.156 695.156H164.469C164.151 695.156 163.893 694.895 163.893 694.58C163.893 694.261 164.151 694.004 164.469 694.004H618.156C618.471 694.004 618.732 694.261 618.732 694.58C618.732 694.895 618.471 695.156 618.156 695.156Z" fill="#1B1A2E"/>
<path d="M201.327 258.008C208.147 248.92 221.042 247.081 230.129 253.901C236.97 259.037 239.702 267.611 237.727 275.414L245.061 281.16L234.234 282.703C227.415 291.791 214.52 293.63 205.433 286.809C196.345 279.989 194.507 267.093 201.327 258.008Z" fill="white"/>
<path d="M221.387 262.802C221.387 262.184 221.221 261.597 220.936 261.094H220.936C221.311 260.898 221.57 260.507 221.57 260.054V259.24C221.57 258.949 221.334 258.711 221.042 258.711C220.75 258.711 220.514 258.949 220.514 259.24V260.054C220.514 260.123 220.459 260.177 220.392 260.177H220.173H220.172C219.57 259.663 218.788 259.352 217.933 259.352C217.081 259.352 216.299 259.663 215.697 260.177H215.696H215.476C215.408 260.177 215.353 260.123 215.353 260.054V259.24C215.353 258.949 215.117 258.711 214.825 258.711C214.533 258.711 214.297 258.949 214.297 259.24V260.054C214.297 260.511 214.558 260.898 214.935 261.098H214.933C214.648 261.601 214.482 262.184 214.482 262.802C214.482 263.217 214.556 263.608 214.687 263.977C215.676 263.439 216.774 263.14 217.933 263.14C219.091 263.14 220.19 263.439 221.179 263.977C221.313 263.608 221.387 263.217 221.387 262.802Z" fill="#1F4068"/>
<path d="M213.326 266.395H210.712C209.95 266.395 209.329 265.773 209.329 265.009V262.614C209.329 262.322 209.093 262.084 208.801 262.084C208.51 262.084 208.273 262.322 208.273 262.614V265.009C208.273 266.356 209.368 267.45 210.712 267.45H212.54H212.539C211.99 268.329 211.592 269.35 211.387 270.455H206.68C206.391 270.455 206.152 270.689 206.152 270.981C206.152 271.273 206.391 271.511 206.68 271.511H211.247C211.229 271.745 211.219 271.991 211.219 272.232C211.219 273.023 211.313 273.791 211.496 274.516H210.712C209.368 274.516 208.273 275.61 208.273 276.957V279.352C208.273 279.644 208.51 279.882 208.801 279.882C209.093 279.882 209.329 279.644 209.329 279.352V276.957C209.329 276.193 209.95 275.571 210.712 275.571H211.827L211.828 275.575C212.817 278.166 214.919 280.012 217.405 280.242V271.511V270.455V266.214V264.226C216.623 264.295 215.877 264.529 215.194 264.898C214.497 265.266 213.868 265.777 213.326 266.395Z" fill="#1F4068"/>
<path d="M229.186 270.455H224.478C224.274 269.35 223.876 268.329 223.327 267.45H225.154C226.499 267.45 227.594 266.356 227.594 265.009V262.614C227.594 262.322 227.358 262.084 227.066 262.084C226.774 262.084 226.538 262.322 226.538 262.614V265.009C226.538 265.773 225.918 266.395 225.154 266.395H222.542C222 265.777 221.369 265.27 220.676 264.902C219.993 264.533 219.246 264.295 218.461 264.226V266.214V270.455V271.511V280.242C220.946 280.012 223.049 278.166 224.038 275.575L224.038 275.571H225.155C225.917 275.571 226.537 276.193 226.537 276.957V279.352C226.537 279.644 226.773 279.882 227.065 279.882C227.357 279.882 227.593 279.644 227.593 279.352V276.957C227.593 275.61 226.499 274.516 225.155 274.516H224.369C224.552 273.791 224.647 273.023 224.647 272.232C224.647 271.991 224.637 271.745 224.619 271.511H229.186C229.478 271.511 229.714 271.273 229.714 270.981C229.714 270.689 229.478 270.455 229.186 270.455Z" fill="#1F4068"/>
<path d="M217.823 249.971C216.855 249.971 215.881 250.04 214.905 250.179C209.515 250.946 204.748 253.767 201.48 258.123C198.213 262.476 196.836 267.841 197.605 273.23C198.373 278.619 201.194 283.39 205.548 286.656C214.535 293.399 227.335 291.576 234.081 282.587L234.129 282.526L244.588 281.033L237.51 275.487L237.541 275.368C239.565 267.369 236.611 259.006 230.014 254.055C226.448 251.38 222.203 249.971 217.823 249.971ZM217.756 291.112C213.418 291.112 209.046 289.761 205.317 286.963C200.881 283.631 198.007 278.776 197.224 273.284C196.442 267.795 197.845 262.326 201.173 257.893C204.503 253.456 209.36 250.582 214.851 249.799C220.342 249.016 225.808 250.42 230.244 253.748C236.932 258.768 239.945 267.231 237.943 275.341L245.533 281.286L234.34 282.883C230.265 288.268 224.047 291.112 217.756 291.112Z" fill="#1F4068"/>
<path d="M205.953 282.756C205.806 282.756 205.659 282.703 205.546 282.591C205.321 282.365 205.321 282 205.546 281.778L229.201 258.12C229.426 257.897 229.79 257.897 230.015 258.12C230.24 258.346 230.24 258.711 230.015 258.933L206.36 282.591C206.248 282.703 206.1 282.756 205.953 282.756Z" fill="#F9A21B"/>
</svg>
